<?xml version="1.0" encoding="UTF-8"?>
<svg width="1059px" height="535px" viewBox="0 0 1059 535" version="1.1" xmlns="http://www.w3.org/2000/svg" xmlns:xlink="http://www.w3.org/1999/xlink">
    <title>Group 3</title>
    <defs>
        <linearGradient x1="72.9581973%" y1="32.5342251%" x2="-3.25445644%" y2="90.5163355%" id="linearGradient-1">
            <stop stop-color="#67D5B5" offset="0%"></stop>
            <stop stop-color="#68D3B6" offset="17%"></stop>
            <stop stop-color="#80A6C8" offset="36%"></stop>
            <stop stop-color="#9282D6" offset="55%"></stop>
            <stop stop-color="#9F69E0" offset="72%"></stop>
            <stop stop-color="#A759E6" offset="88%"></stop>
            <stop stop-color="#AA54E8" offset="100%"></stop>
        </linearGradient>
        <linearGradient x1="50%" y1="0%" x2="50%" y2="100%" id="linearGradient-2">
            <stop stop-color="#000000" stop-opacity="0" offset="0%"></stop>
            <stop stop-color="#000000" stop-opacity="0.0353462254" offset="43.8039538%"></stop>
            <stop stop-color="#000000" offset="100%"></stop>
        </linearGradient>
        <linearGradient x1="72.9581973%" y1="49.5274052%" x2="-3.25445644%" y2="51.0963046%" id="linearGradient-3">
            <stop stop-color="#AA54E8" offset="0%"></stop>
            <stop stop-color="#A759E6" offset="12%"></stop>
            <stop stop-color="#9F69E0" offset="28%"></stop>
            <stop stop-color="#9282D6" offset="45%"></stop>
            <stop stop-color="#80A6C8" offset="64%"></stop>
            <stop stop-color="#68D3B6" offset="83%"></stop>
            <stop stop-color="#67D5B5" offset="100%"></stop>
        </linearGradient>
        <path d="M122.76,495.29366 C124.212,495.29366 125.895,495.19466 127.809,494.99666 C129.723,494.79866 131.208,494.56766 132.264,494.30366 L132.264,494.30366 L132.264,489.35366 C127.776,488.82566 123.816,486.84566 120.384,483.41366 C116.952,479.98166 114.048,475.36166 111.672,469.55366 L111.672,469.55366 L67.32,363.82166 L58.41,363.82166 L0,494.50166 L10.296,494.50166 L26.532,458.46566 L79.2,458.46566 L83.754,469.55366 C86.13,475.22966 88.869,479.75066 91.971,483.11666 C95.073,486.48266 98.373,489.05666 101.871,490.83866 C105.369,492.62066 108.933,493.80866 112.563,494.40266 C116.193,494.99666 119.592,495.29366 122.76,495.29366 Z M75.438,449.55566 L30.69,449.55566 L53.658,397.87766 L75.438,449.55566 Z M169.235921,494.50166 L169.235921,425.99366 C169.235921,424.40966 169.169921,422.95766 169.037921,421.63766 C168.905921,420.31766 168.707921,419.19566 168.443921,418.27166 C168.179921,417.21566 167.981921,416.29166 167.849921,415.49966 C169.565921,413.78366 171.974921,412.33166 175.076921,411.14366 C178.178921,409.95566 181.841921,409.36166 186.065921,409.36166 C191.477921,409.36166 195.965921,411.34166 199.529921,415.30166 C203.093921,419.26166 204.875921,426.05966 204.875921,435.69566 L204.875921,435.69566 L204.875921,494.50166 L230.615921,494.50166 L230.615921,435.89366 C230.615921,423.08966 227.447921,413.81666 221.111921,408.07466 C214.775921,402.33266 205.403921,399.46166 192.995921,399.46166 C188.903921,399.46166 185.339921,399.75866 182.303921,400.35266 C179.267921,400.94666 176.594921,401.67266 174.284921,402.53066 C171.974921,403.38866 169.994921,404.37866 168.344921,405.50066 C166.694921,406.62266 165.275921,407.71166 164.087921,408.76766 C162.635921,406.12766 160.622921,404.24666 158.048921,403.12466 C155.474921,402.00266 151.943921,401.44166 147.455921,401.44166 L147.455921,401.44166 L127.853921,401.44166 L127.853921,407.38166 L129.833921,407.38166 C132.737921,407.38166 135.113921,407.84366 136.961921,408.76766 C138.809921,409.69166 140.195921,411.04466 141.119921,412.82666 C142.043921,414.60866 142.670921,416.72066 143.000921,419.16266 C143.330921,421.60466 143.495921,424.27766 143.495921,427.18166 L143.495921,427.18166 L143.495921,494.50166 L169.235921,494.50166 Z M293.921841,534.10166 C300.785841,534.10166 307.187841,533.57366 313.127841,532.51766 C319.067841,531.46166 324.215841,529.74566 328.571841,527.36966 C332.927841,524.99366 336.326841,521.85866 338.768841,517.96466 C341.210841,514.07066 342.431841,509.21966 342.431841,503.41166 C342.431841,498.26366 341.144841,493.74266 338.570841,489.84866 C335.996841,485.95466 332.531841,482.72066 328.175841,480.14666 C323.819841,477.57266 318.704841,475.62566 312.830841,474.30566 C306.956841,472.98566 300.653841,472.25966 293.921841,472.12766 C287.981841,471.99566 283.196841,471.63266 279.566841,471.03866 C275.936841,470.44466 274.121841,469.02566 274.121841,466.78166 C274.121841,464.14166 275.936841,462.49166 279.566841,461.83166 C283.196841,461.17166 287.981841,460.84166 293.921841,460.84166 C300.389841,460.84166 306.230841,460.31366 311.444841,459.25766 C316.658841,458.20166 321.113841,456.48566 324.809841,454.10966 C328.505841,451.73366 331.376841,448.59866 333.422841,444.70466 C335.468841,440.81066 336.491841,436.02566 336.491841,430.34966 C336.491841,425.72966 334.742841,421.24166 331.244841,416.88566 C327.746841,412.52966 323.225841,409.29566 317.681841,407.18366 L317.681841,407.18366 L335.501841,404.80766 L335.501841,399.46166 L293.921841,399.46166 C287.981841,399.46166 282.437841,399.98966 277.289841,401.04566 C272.141841,402.10166 267.620841,403.85066 263.726841,406.29266 C259.832841,408.73466 256.796841,411.93566 254.618841,415.89566 C252.440841,419.85566 251.351841,424.67366 251.351841,430.34966 C251.351841,436.42166 253.265841,441.86666 257.093841,446.68466 C260.921841,451.50266 265.607841,454.90166 271.151841,456.88166 C265.871841,458.99366 263.231841,462.29366 263.231841,466.78166 C263.231841,469.81766 264.089841,472.19366 265.805841,473.90966 C267.521841,475.62566 269.633841,476.87966 272.141841,477.67166 C268.973841,478.46366 265.805841,479.58566 262.637841,481.03766 C259.469841,482.48966 256.598841,484.27166 254.024841,486.38366 C251.450841,488.49566 249.371841,490.97066 247.787841,493.80866 C246.203841,496.64666 245.411841,499.84766 245.411841,503.41166 C245.411841,509.21966 246.632841,514.07066 249.074841,517.96466 C251.516841,521.85866 254.915841,524.99366 259.271841,527.36966 C263.627841,529.74566 268.742841,531.46166 274.616841,532.51766 C280.490841,533.57366 286.925841,534.10166 293.921841,534.10166 Z M293.921841,452.92166 C289.301841,452.92166 285.506841,451.20566 282.536841,447.77366 C279.566841,444.34166 278.081841,438.53366 278.081841,430.34966 C278.081841,422.29766 279.566841,416.45666 282.536841,412.82666 C285.506841,409.19666 289.301841,407.38166 293.921841,407.38166 C298.541841,407.38166 302.336841,409.32866 305.306841,413.22266 C308.276841,417.11666 309.761841,422.82566 309.761841,430.34966 C309.761841,438.53366 308.276841,444.34166 305.306841,447.77366 C302.336841,451.20566 298.541841,452.92166 293.921841,452.92166 Z M293.921841,525.19166 C287.321841,525.19166 282.041841,523.44266 278.081841,519.94466 C274.121841,516.44666 272.141841,510.93566 272.141841,503.41166 C272.141841,497.07566 273.395841,492.09266 275.903841,488.46266 C278.411841,484.83266 281.843841,482.09366 286.199841,480.24566 L286.199841,480.24566 L295.505841,481.23566 C301.577841,482.42366 306.461841,484.93166 310.157841,488.75966 C313.853841,492.58766 315.701841,497.47166 315.701841,503.41166 C315.701841,510.93566 313.721841,516.44666 309.761841,519.94466 C305.801841,523.44266 300.521841,525.19166 293.921841,525.19166 Z M388.907762,494.50166 L388.907762,427.97366 C388.907762,426.78566 388.874762,425.63066 388.808762,424.50866 C388.742762,423.38666 388.643762,422.36366 388.511762,421.43966 C388.379762,420.38366 388.247762,419.39366 388.115762,418.46966 C389.831762,416.75366 392.141762,415.30166 395.045762,414.11366 C397.949762,412.92566 401.513762,412.33166 405.737762,412.33166 C407.981762,412.33166 409.928762,412.72766 411.578762,413.51966 C413.228762,414.31166 414.647762,415.23566 415.835762,416.29166 C417.287762,417.47966 418.475762,418.73366 419.399762,420.05366 L419.399762,420.05366 L429.497762,412.33166 C429.497762,412.33166 429.365762,412.03466 429.101762,411.44066 C428.837762,410.84666 428.408762,410.08766 427.814762,409.16366 C427.220762,408.23966 426.527762,407.24966 425.735762,406.19366 C424.943762,405.13766 423.953762,404.21366 422.765762,403.42166 C419.201762,400.78166 414.515762,399.46166 408.707762,399.46166 C402.767762,399.46166 397.718762,400.48466 393.560762,402.53066 C389.402762,404.57666 386.135762,406.65566 383.759762,408.76766 C382.307762,406.12766 380.294762,404.24666 377.720762,403.12466 C375.146762,402.00266 371.615762,401.44166 367.127762,401.44166 L367.127762,401.44166 L347.525762,401.44166 L347.525762,407.38166 L349.505762,407.38166 C352.409762,407.38166 354.785762,407.84366 356.633762,408.76766 C358.481762,409.69166 359.867762,411.04466 360.791762,412.82666 C361.715762,414.60866 362.342762,416.72066 362.672762,419.16266 C363.002762,421.60466 363.167762,424.27766 363.167762,427.18166 L363.167762,427.18166 L363.167762,494.50166 L388.907762,494.50166 Z M457.361683,534.10166 C460.793683,534.10166 463.994683,533.70566 466.964683,532.91366 C469.934683,532.12166 472.673683,530.73566 475.181683,528.75566 C477.689683,526.77566 480.065683,524.06966 482.309683,520.63766 C484.553683,517.20566 486.665683,512.78366 488.645683,507.37166 L488.645683,507.37166 L528.641683,401.44166 L518.147683,401.44166 L493.991683,465.19766 L471.221683,415.30166 C468.977683,410.41766 465.611683,406.55666 461.123683,403.71866 C456.635683,400.88066 451.421683,399.46166 445.481683,399.46166 L445.481683,399.46166 L428.057683,399.46166 L428.057683,403.42166 C435.977683,404.34566 442.115683,409.62566 446.471683,419.26166 L446.471683,419.26166 L482.111683,497.27366 L477.953683,507.96566 C476.501683,511.79366 474.851683,514.92866 473.003683,517.37066 C471.155683,519.81266 469.043683,521.75966 466.667683,523.21166 C464.291683,524.66366 461.684683,525.68666 458.846683,526.28066 C456.008683,526.87466 452.873683,527.17166 449.441683,527.17166 L449.441683,527.17166 L449.441683,534.10166 L457.361683,534.10166 Z M637.829524,497.86766 C653.801524,497.86766 666.077524,494.56766 674.657524,487.96766 C683.237524,481.36766 687.527524,472.39166 687.527524,461.03966 C687.527524,453.77966 685.448524,447.60866 681.290524,442.52666 C677.132524,437.44466 670.565524,432.26366 661.589524,426.98366 L661.589524,426.98366 L637.235524,412.52966 C634.067524,410.68166 631.229524,408.89966 628.721524,407.18366 C626.213524,405.46766 624.068524,403.68566 622.286524,401.83766 C620.504524,399.98966 619.118524,397.97666 618.128524,395.79866 C617.138524,393.62066 616.643524,391.14566 616.643524,388.37366 C616.643524,382.43366 618.722524,377.74766 622.880524,374.31566 C627.038524,370.88366 632.681524,369.16766 639.809524,369.16766 C649.841524,369.16766 657.959524,372.07166 664.163524,377.87966 C670.367524,383.68766 674.591524,393.45566 676.835524,407.18366 L676.835524,407.18366 L682.379524,407.18366 L682.379524,384.01766 C682.379524,380.32166 681.059524,376.98866 678.419524,374.01866 C675.779524,371.04866 672.347524,368.54066 668.123524,366.49466 C663.899524,364.44866 659.114524,362.89766 653.768524,361.84166 C648.422524,360.78566 643.043524,360.25766 637.631524,360.25766 C624.035524,360.25766 613.244524,363.29366 605.258524,369.36566 C597.272524,375.43766 593.279524,383.68766 593.279524,394.11566 C593.279524,401.37566 595.127524,407.77766 598.823524,413.32166 C602.519524,418.86566 608.855524,424.27766 617.831524,429.55766 L617.831524,429.55766 L642.185524,444.20966 C648.521524,448.03766 653.504524,451.83266 657.134524,455.59466 C660.764524,459.35666 662.579524,464.07566 662.579524,469.75166 C662.579524,476.08766 660.302524,480.87266 655.748524,484.10666 C651.194524,487.34066 645.155524,488.95766 637.631524,488.95766 C626.543524,488.95766 617.798524,486.05366 611.396524,480.24566 C604.994524,474.43766 600.737524,464.66966 598.625524,450.94166 L598.625524,450.94166 L593.081524,450.94166 L593.081524,474.10766 C593.081524,477.80366 594.401524,481.13666 597.041524,484.10666 C599.681524,487.07666 603.113524,489.58466 607.337524,491.63066 C611.561524,493.67666 616.346524,495.22766 621.692524,496.28366 C627.038524,497.33966 632.417524,497.86766 637.829524,497.86766 Z M750.635445,496.48166 C758.027445,496.48166 764.660445,495.22766 770.534445,492.71966 C776.408445,490.21166 781.391445,486.77966 785.483445,482.42366 C789.575445,478.06766 792.710445,472.91966 794.888445,466.97966 C797.066445,461.03966 798.155445,454.70366 798.155445,447.97166 C798.155445,441.23966 797.066445,434.90366 794.888445,428.96366 C792.710445,423.02366 789.575445,417.87566 785.483445,413.51966 C781.391445,409.16366 776.408445,405.73166 770.534445,403.22366 C764.660445,400.71566 758.027445,399.46166 750.635445,399.46166 C743.243445,399.46166 736.610445,400.71566 730.736445,403.22366 C724.862445,405.73166 719.879445,409.16366 715.787445,413.51966 C711.695445,417.87566 708.560445,423.02366 706.382445,428.96366 C704.204445,434.90366 703.115445,441.23966 703.115445,447.97166 C703.115445,454.70366 704.204445,461.03966 706.382445,466.97966 C708.560445,472.91966 711.695445,478.06766 715.787445,482.42366 C719.879445,486.77966 724.862445,490.21166 730.736445,492.71966 C736.610445,495.22766 743.243445,496.48166 750.635445,496.48166 Z M750.635445,487.57166 C747.203445,487.57166 744.167445,486.58166 741.527445,484.60166 C738.887445,482.62166 736.709445,479.84966 734.993445,476.28566 C733.277445,472.72166 731.990445,468.53066 731.132445,463.71266 C730.274445,458.89466 729.845445,453.64766 729.845445,447.97166 C729.845445,442.29566 730.274445,437.04866 731.132445,432.23066 C731.990445,427.41266 733.277445,423.22166 734.993445,419.65766 C736.709445,416.09366 738.887445,413.32166 741.527445,411.34166 C744.167445,409.36166 747.203445,408.37166 750.635445,408.37166 C754.067445,408.37166 757.103445,409.36166 759.743445,411.34166 C762.383445,413.32166 764.561445,416.09366 766.277445,419.65766 C767.993445,423.22166 769.280445,427.41266 770.138445,432.23066 C770.996445,437.04866 771.425445,442.29566 771.425445,447.97166 C771.425445,453.64766 770.996445,458.89466 770.138445,463.71266 C769.280445,468.53066 767.993445,472.72166 766.277445,476.28566 C764.561445,479.84966 762.383445,482.62166 759.743445,484.60166 C757.103445,486.58166 754.067445,487.57166 750.635445,487.57166 Z M856.907366,496.48166 C860.867366,496.48166 864.365366,495.95366 867.401366,494.89766 C870.437366,493.84166 873.011366,492.58766 875.123366,491.13566 C877.499366,489.55166 879.677366,487.70366 881.657366,485.59166 L881.657366,485.59166 L882.647366,485.59166 L889.577366,494.50166 L906.407366,494.50166 L906.407366,401.44166 L880.667366,401.44166 L880.667366,474.70166 C879.347366,477.20966 877.829366,479.38766 876.113366,481.23566 C874.661366,482.81966 872.846366,484.27166 870.668366,485.59166 C868.490366,486.91166 865.883366,487.57166 862.847366,487.57166 C857.435366,487.57166 853.277366,485.55866 850.373366,481.53266 C847.469366,477.50666 846.017366,470.41166 846.017366,460.24766 L846.017366,460.24766 L846.017366,427.18166 C846.017366,422.29766 845.753366,418.20566 845.225366,414.90566 C844.697366,411.60566 843.740366,408.96566 842.354366,406.98566 C840.968366,405.00566 839.120366,403.58666 836.810366,402.72866 C834.500366,401.87066 831.629366,401.44166 828.197366,401.44166 L828.197366,401.44166 L804.437366,401.44166 L804.437366,407.38166 L806.417366,407.38166 C812.357366,407.38166 816.152366,409.19666 817.802366,412.82666 C819.452366,416.45666 820.277366,421.24166 820.277366,427.18166 L820.277366,427.18166 L820.277366,460.04966 C820.277366,472.85366 823.280366,482.12666 829.286366,487.86866 C835.292366,493.61066 844.499366,496.48166 856.907366,496.48166 Z M957.833286,494.50166 L957.833286,389.56166 C957.833286,384.67766 957.569286,380.58566 957.041286,377.28566 C956.513286,373.98566 955.556286,371.34566 954.170286,369.36566 C952.784286,367.38566 950.936286,365.96666 948.626286,365.10866 C946.316286,364.25066 943.445286,363.82166 940.013286,363.82166 L940.013286,363.82166 L916.253286,363.82166 L916.253286,369.76166 L918.233286,369.76166 C924.173286,369.76166 927.968286,371.57666 929.618286,375.20666 C931.268286,378.83666 932.093286,383.62166 932.093286,389.56166 L932.093286,389.56166 L932.093286,494.50166 L957.833286,494.50166 Z M1016.98121,496.48166 C1022.92121,496.48166 1028.36621,495.92066 1033.31621,494.79866 C1038.26621,493.67666 1042.52321,491.99366 1046.08721,489.74966 C1049.65121,487.50566 1052.45621,484.76666 1054.50221,481.53266 C1056.54821,478.29866 1057.57121,474.50366 1057.57121,470.14766 C1057.57121,463.15166 1055.26121,457.57466 1050.64121,453.41666 C1046.02121,449.25866 1039.15721,445.26566 1030.04921,441.43766 L1030.04921,441.43766 L1018.16921,436.48766 C1013.81321,434.63966 1010.38121,432.62666 1007.87321,430.44866 C1005.36521,428.27066 1004.11121,425.39966 1004.11121,421.83566 C1004.11121,418.00766 1005.43121,414.80666 1008.07121,412.23266 C1010.71121,409.65866 1015.00121,408.37166 1020.94121,408.37166 C1028.86121,408.37166 1034.86721,410.58266 1038.95921,415.00466 C1043.05121,419.42666 1045.62521,424.80566 1046.68121,431.14166 L1046.68121,431.14166 L1053.61121,431.14166 C1053.61121,426.12566 1053.41321,421.50566 1053.01721,417.28166 C1052.62121,413.05766 1051.23521,409.82366 1048.85921,407.57966 C1046.21921,405.07166 1042.29221,403.09166 1037.07821,401.63966 C1031.86421,400.18766 1025.16521,399.46166 1016.98121,399.46166 C1011.56921,399.46166 1006.55321,400.02266 1001.93321,401.14466 C997.313207,402.26666 993.320207,403.94966 989.954207,406.19366 C986.588207,408.43766 983.981207,411.17666 982.133207,414.41066 C980.285207,417.64466 979.361207,421.43966 979.361207,425.79566 C979.361207,432.26366 981.605207,437.67566 986.093207,442.03166 C990.581207,446.38766 996.785207,450.28166 1004.70521,453.71366 L1004.70521,453.71366 L1015.00121,458.06966 C1020.01721,460.31366 1024.24121,462.59066 1027.67321,464.90066 C1031.10521,467.21066 1032.82121,470.27966 1032.82121,474.10766 C1032.82121,477.93566 1031.36921,481.13666 1028.46521,483.71066 C1025.56121,486.28466 1020.41321,487.57166 1013.02121,487.57166 C1005.10121,487.57166 999.095207,485.36066 995.003207,480.93866 C990.911207,476.51666 988.337207,471.13766 987.281207,464.80166 L987.281207,464.80166 L980.351207,464.80166 C980.351207,469.81766 980.549207,474.43766 980.945207,478.66166 C981.341207,482.88566 982.727207,486.11966 985.103207,488.36366 C987.743207,490.87166 991.670207,492.85166 996.884207,494.30366 C1002.09821,495.75566 1008.79721,496.48166 1016.98121,496.48166 Z" id="path-4"></path>
    </defs>
    <g id="Page-1" stroke="none" stroke-width="1" fill="none" fill-rule="evenodd">
        <g id="1500*500-copy" transform="translate(-212.000000, -173.000000)" fill-rule="nonzero">
            <g id="Group-3" transform="translate(212.584000, 173.000000)">
                <g id="favicons-1-01" opacity="0.715744019" transform="translate(282.816000, 0.000000)">
                    <ellipse id="Oval" fill="url(#linearGradient-1)" cx="250.2" cy="250.026971" rx="250.2" ry="250.026971"></ellipse>
                    <path d="M250.192139,30.6830934 L292.734585,106.623008 L292.734585,106.623008 L295.643067,111.816016 C303.629602,127.035282 323.014242,171.785868 286.508862,190.712191 L285.880001,191.056306 C264.616902,201.147002 243.956004,212.44854 224.000079,224.904705 C184.763458,249.413154 148.413435,278.222544 115.631608,310.792671 C97.3381326,329.012331 80.1951284,348.340543 64.3008299,368.66655 C65.1026276,369.902236 65.8729823,371.12228 66.7691093,372.342324 C124.435662,318.785523 188.249331,286.438716 244.799656,266.933655 C263.80698,260.395471 281.996784,255.265029 298.850259,251.292066 C309.242186,248.836336 319.288241,246.787288 329.192801,245.03543 C341.95868,243.987444 369.298411,247.39731 394.295636,287.987234 L401.291714,300.500505 L401.291714,300.500505 L437.907145,365.835423 C495.918661,273.544289 477.470442,152.932932 394.491074,81.9884469 C311.511705,11.0439617 188.888295,11.0439617 105.908926,81.9884469 C22.929558,152.932932 4.48133851,273.544289 62.4928545,365.835423 L250.192139,30.6830934 Z" id="Path" fill="#000000"></path>
                    <path d="M70.2,377.738589 C111.979513,431.966638 178.926227,464.078838 250.2,464.078838 C321.473773,464.078838 388.420487,431.966638 430.2,377.738589 L70.2,377.738589 Z" id="Path" fill="#000000"></path>
                    <ellipse id="Oval" fill="url(#linearGradient-2)" cx="250.2" cy="278.807054" rx="250.2" ry="250.026971"></ellipse>
                </g>
                <g id="AngrySouls">
                    <use fill="#FFFFFF" xlink:href="#path-4"></use>
                    <use fill="url(#linearGradient-3)" xlink:href="#path-4"></use>
                </g>
            </g>
        </g>
    </g>
</svg>