<?xml version="1.0" encoding="UTF-8"?>
<svg width="321px" height="321px" viewBox="0 0 321 321" version="1.1" xmlns="http://www.w3.org/2000/svg" xmlns:xlink="http://www.w3.org/1999/xlink">
    <title>Artboard</title>
    <defs>
        <linearGradient x1="78.9735785%" y1="13.8485275%" x2="18.6487426%" y2="90.7818945%" id="linearGradient-1">
            <stop stop-color="#70EC9D" offset="0%"></stop>
            <stop stop-color="#79CCD4" offset="50%"></stop>
            <stop stop-color="#813CFF" offset="100%"></stop>
        </linearGradient>
    </defs>
    <g id="Artboard" stroke="none" stroke-width="1" fill="none" fill-rule="evenodd">
        <g id="Group" transform="translate(1.000000, 1.000000)">
            <circle id="Oval" fill="url(#linearGradient-1)" cx="159.32" cy="159.32" r="159.32"></circle>
            <path d="M159.32,19.73 L186.38,68.28 L186.38,68.28 L188.23,71.6 C193.31,81.33 205.64,109.94 182.42,122.04 L182.02,122.26 C168.495167,128.711196 155.353378,135.936509 142.66,143.9 C117.702738,159.568772 94.5815569,177.987226 73.73,198.81 C62.0940576,210.458216 51.1898963,222.815152 41.08,235.81 C41.59,236.6 42.08,237.38 42.65,238.16 C79.33,203.92 119.92,183.24 155.89,170.77 C167.98,166.59 179.55,163.31 190.27,160.77 C196.88,159.2 203.27,157.89 209.57,156.77 C217.69,156.1 235.08,158.28 250.98,184.23 L255.43,192.23 L255.43,192.23 L278.72,234 C315.619421,174.996318 303.88505,97.8869175 251.104312,52.5306018 C198.323574,7.17428612 120.326426,7.17428612 67.5456877,52.5306018 C14.7649496,97.8869175 3.03057918,174.996318 39.93,234 L159.32,19.73 Z" id="Path" fill="#1D1D1B" fill-rule="nonzero"></path>
            <path d="M45.26,241.87 C71.7354453,278.462345 114.159206,300.131218 159.325,300.131218 C204.490794,300.131218 246.914555,278.462345 273.39,241.87 L45.26,241.87 Z" id="Path" fill="#1D1D1B" fill-rule="nonzero"></path>
        </g>
    </g>
</svg>